<?xml version="1.0" encoding="UTF-8"?>
<svg version="1.1" xmlns="http://www.w3.org/2000/svg" width="411" height="396">
<path d="M0 0 C135.63 0 271.26 0 411 0 C411 130.68 411 261.36 411 396 C275.37 396 139.74 396 0 396 C0 265.32 0 134.64 0 0 Z " fill="#253F93" transform="translate(0,0)"/>
<path d="M0 0 C4.59693669 2.38785323 8.3321661 4.9964983 10 10 C10 44.32 10 78.64 10 114 C97.12 114 184.24 114 274 114 C274 95.19 274 76.38 274 57 C277.69230769 47.15384615 277.69230769 47.15384615 284 44 C291.43792439 43.31672611 298.0645588 43.01812409 304.44921875 47.22265625 C310.08916128 53.68657023 309.41021169 61.26260254 309.34057617 69.37084961 C309.33972894 70.72161846 309.34020692 72.07238869 309.34190369 73.42315674 C309.34276132 77.07357465 309.32517347 80.72369436 309.30418181 84.37404323 C309.28537614 88.1950304 309.28366152 92.01602508 309.28010559 95.83705139 C309.27079651 103.06528283 309.24619824 110.29337749 309.21605712 117.52154881 C309.1824776 125.75369963 309.16601819 133.98585712 309.15097082 142.21805942 C309.11964756 159.14546555 309.06464984 176.07268336 309 193 C297.45 193 285.9 193 274 193 C274 178.48 274 163.96 274 149 C186.88 149 99.76 149 10 149 C10 163.52 10 178.04 10 193 C-1.55 193 -13.1 193 -25 193 C-25.04513008 169.48688321 -25.08197941 145.97380143 -25.10362434 122.46065235 C-25.11394115 111.54333255 -25.12800922 100.62604155 -25.15087891 89.70874023 C-25.17080039 80.19429575 -25.1837135 70.67987212 -25.18817699 61.16540736 C-25.19078647 56.12661609 -25.19692832 51.08788449 -25.21146011 46.04911232 C-25.22502437 41.30745252 -25.22922497 36.56587704 -25.22621536 31.82419968 C-25.22676604 30.08312077 -25.23075036 28.34203908 -25.23841095 26.60097694 C-25.24835411 24.22479165 -25.24597121 21.84892514 -25.24050903 19.47273254 C-25.24633472 18.78303511 -25.2521604 18.09333768 -25.25816262 17.38274032 C-25.22393978 11.8786024 -24.27866236 8.48601301 -20.6875 4.3125 C-14.68193209 -0.85508169 -7.62989116 -1.20566676 0 0 Z " fill="#000000" transform="translate(59,116)"/>
<path d="M0 0 C32.44842066 -0.24181821 32.44842066 -0.24181821 46.078125 -0.29296875 C55.47773957 -0.32852824 64.8770307 -0.37026088 74.27636719 -0.45263672 C81.12284669 -0.51261048 87.96906302 -0.55118956 94.81579792 -0.56453097 C98.43820806 -0.57232471 102.05986563 -0.59052238 105.68203354 -0.63438034 C109.73480762 -0.68305001 113.78628976 -0.68392845 117.83935547 -0.68115234 C119.02834946 -0.702724 120.21734344 -0.72429565 121.44236755 -0.746521 C129.10137688 -0.68991584 135.22918189 0.65985665 141 6 C142.26890373 8.7043705 142.26890373 8.7043705 143 11 C143.66 11 144.32 11 145 11 C155.91536986 27.37305479 147 50.32203714 147 70 C98.49 70 49.98 70 0 70 C0 46.9 0 23.8 0 0 Z " fill="#010101" transform="translate(174,151)"/>
<path d="M0 0 C3.23911569 2.94465063 4.83713745 5.94123005 5.35006714 10.3425293 C5.47591244 13.36756421 5.50443336 16.37858696 5.49609375 19.40625 C5.5013356 20.51552856 5.50657745 21.62480713 5.51197815 22.7677002 C5.5183875 25.10765752 5.51707549 27.44764711 5.50854492 29.78759766 C5.50002885 33.3628888 5.52882365 36.93658503 5.56054688 40.51171875 C5.5621589 42.78906202 5.56158133 45.06640812 5.55859375 47.34375 C5.56982773 48.40952271 5.58106171 49.47529541 5.59263611 50.57336426 C5.53733545 56.47566313 5.25434892 60.34268951 1.0625 64.875 C-2.91023585 67.784847 -5.75070135 68.25660289 -10.63623047 68.27905273 C-11.61532379 68.28934761 -11.61532379 68.28934761 -12.61419678 68.29985046 C-14.76125149 68.31807657 -16.90757238 68.31428668 -19.0546875 68.30859375 C-20.55535111 68.31315828 -22.05601264 68.31846466 -23.55667114 68.32447815 C-26.69883729 68.3334015 -29.84074919 68.33099594 -32.98291016 68.32104492 C-36.99672053 68.30956819 -41.00964943 68.32974976 -45.02334404 68.35896206 C-48.1221773 68.37736908 -51.2208012 68.37702252 -54.31967545 68.37132454 C-55.79876058 68.37117181 -57.27786033 68.3771762 -58.75689316 68.38961601 C-73.13525336 68.49349988 -73.13525336 68.49349988 -78.9375 63.875 C-81.91018636 59.76594046 -81.68965458 54.73049292 -80.9375 49.875 C-79.3065693 46.50400568 -77.37230975 43.59240487 -73.9375 41.875 C-72.24206409 41.78448931 -70.54306022 41.75745128 -68.84521484 41.76147461 C-67.25379166 41.76158791 -67.25379166 41.76158791 -65.63021851 41.76170349 C-63.90673691 41.76944542 -63.90673691 41.76944542 -62.1484375 41.77734375 C-60.97487701 41.7787587 -59.80131653 41.78017365 -58.5921936 41.78163147 C-54.83227015 41.78724311 -51.07240555 41.79979762 -47.3125 41.8125 C-44.76823002 41.8175135 -42.22395912 41.82207667 -39.6796875 41.82617188 C-33.43227147 41.83721632 -27.18488994 41.85396582 -20.9375 41.875 C-20.96368408 40.81587402 -20.98986816 39.75674805 -21.0168457 38.66552734 C-21.10766552 34.71847845 -21.16486342 30.771521 -21.2121582 26.82373047 C-21.23723045 25.11849411 -21.27129764 23.41336446 -21.31469727 21.70849609 C-21.37567566 19.25070826 -21.40378112 16.79434639 -21.42578125 14.3359375 C-21.45158768 13.57944916 -21.4773941 12.82296082 -21.50398254 12.04354858 C-21.50607614 8.05047934 -21.11487985 5.58779349 -18.59448242 2.40869141 C-13.61497132 -2.3397572 -6.2766085 -2.40380751 0 0 Z " fill="#010103" transform="translate(162.9375,153.125)"/>
<path d="M0 0 C4.56539617 2.61650475 8.33981276 5.2974259 11.14453125 9.828125 C11.51320312 10.35535156 11.881875 10.88257813 12.26171875 11.42578125 C16.10879155 17.6739581 16.06247616 24.69957986 15.14453125 31.828125 C13.7421875 35.0078125 13.7421875 35.0078125 12.14453125 37.828125 C11.84160156 38.54613281 11.53867188 39.26414063 11.2265625 40.00390625 C9.80404681 42.40215472 8.15709795 43.49553938 5.83203125 45.015625 C5.07277344 45.52480469 4.31351563 46.03398437 3.53125 46.55859375 C-2.71464233 49.8808769 -10.77536943 49.75784284 -17.546875 48.21484375 C-24.74692871 45.71955796 -29.57248661 41.33280116 -33.01953125 34.53125 C-35.07567822 27.88240091 -35.17358038 18.61665577 -32.23046875 12.203125 C-30.02748891 8.5996794 -27.30731502 6.22940936 -23.85546875 3.828125 C-23.19546875 3.828125 -22.53546875 3.828125 -21.85546875 3.828125 C-21.85546875 3.168125 -21.85546875 2.508125 -21.85546875 1.828125 C-14.9817326 -1.92118563 -7.40263527 -3.03801721 0 0 Z " fill="#000101" transform="translate(121.85546875,140.171875)"/>
<path d="M0 0 C0.33 0 0.66 0 1 0 C1 32.01 1 64.02 1 97 C87.46 97 173.92 97 263 97 C262.67 79.51 262.34 62.02 262 44 C262 39.72290301 262.70620251 38.44069624 265 35 C266 37 266 37 265 41 C264.67 59.81 264.34 78.62 264 98 C176.88 98 89.76 98 0 98 C0 65.66 0 33.32 0 0 Z " fill="#1F3371" transform="translate(69,132)"/>
<path d="M0 0 C0.33 0 0.66 0 1 0 C1 23.1 1 46.2 1 70 C49.51 70 98.02 70 148 70 C148 70.33 148 70.66 148 71 C98.83 71 49.66 71 -1 71 C-1.33 70.34 -1.66 69.68 -2 69 C-1.505 68.01 -1.505 68.01 -1 67 C-0.87932315 64.87651099 -0.82255625 62.74929112 -0.79467773 60.62255859 C-0.78477814 59.96877731 -0.77487854 59.31499603 -0.76467896 58.6414032 C-0.73305289 56.47711833 -0.70830228 54.3128115 -0.68359375 52.1484375 C-0.66302517 50.64913355 -0.64202872 49.14983541 -0.62062073 47.65054321 C-0.56539012 43.70174869 -0.51598524 39.75290174 -0.46777344 35.80401611 C-0.41756561 31.77554654 -0.3618758 27.74715322 -0.30664062 23.71875 C-0.19904697 15.81256444 -0.09760471 7.90631515 0 0 Z " fill="#253978" transform="translate(173,151)"/>
<path d="M0 0 C1.794375 0.7425 1.794375 0.7425 3.625 1.5 C9.97816223 3.66515769 16.37049662 3.2546182 23 3 C23 3.66 23 4.32 23 5 C20.56257869 5.16789126 18.12507454 5.33436133 15.6875 5.5 C14.99720703 5.54769531 14.30691406 5.59539062 13.59570312 5.64453125 C5.29515354 6.20592108 5.29515354 6.20592108 2.3125 4.125 C1.549375 3.42375 0.78625 2.7225 0 2 C0 1.34 0 0.68 0 0 Z M2 6 C2.48049805 6.32145996 2.96099609 6.64291992 3.45605469 6.97412109 C7.13825713 8.45901693 10.78828426 8.3582724 14.703125 8.4140625 C15.54091492 8.43342865 16.37870483 8.4527948 17.24188232 8.4727478 C19.91115213 8.53240724 22.58046539 8.57887413 25.25 8.625 C27.06251854 8.66319236 28.87501918 8.70224482 30.6875 8.7421875 C35.12485415 8.83809752 39.56229325 8.9221788 44 9 C44 9.33 44 9.66 44 10 C27.83 10 11.66 10 -5 10 C-5 9.67 -5 9.34 -5 9 C-3.5459375 8.5359375 -3.5459375 8.5359375 -2.0625 8.0625 C0.84065792 7.30476658 0.84065792 7.30476658 2 6 Z " fill="#233570" transform="translate(98,185)"/>
<path d="M0 0 C1.28124667 2.56249335 0.70317043 3.27400004 0 6 C-0.11325854 7.89335853 -0.17595145 9.79000785 -0.20532227 11.68652344 C-0.22526749 12.82740417 -0.24521271 13.96828491 -0.26576233 15.14373779 C-0.28247482 16.36989807 -0.29918732 17.59605835 -0.31640625 18.859375 C-0.33718735 20.11888977 -0.35796844 21.37840454 -0.37937927 22.67608643 C-0.43366302 26.01658871 -0.48392069 29.35710222 -0.53222656 32.69769287 C-0.58255704 36.10971393 -0.6381827 39.52164823 -0.69335938 42.93359375 C-0.80045114 49.62232664 -0.9022354 56.31112463 -1 63 C-1.33 63 -1.66 63 -2 63 C-2.14293555 55.38282217 -2.28529277 47.76563369 -2.42724609 40.1484375 C-2.4756151 37.55663813 -2.52411696 34.96484123 -2.57275391 32.37304688 C-2.64260143 28.649746 -2.71197266 24.92643652 -2.78125 21.203125 C-2.80312378 20.04258606 -2.82499756 18.88204712 -2.84753418 17.68634033 C-2.86755493 16.60552185 -2.88757568 15.52470337 -2.90820312 14.41113281 C-2.92596802 13.46071106 -2.94373291 12.51028931 -2.96203613 11.53106689 C-3.03651079 6.56581016 -2.76306894 4.14460341 0 0 Z " fill="#1A2A58" transform="translate(334,167)"/>
<path d="M0 0 C4.62 0 9.24 0 14 0 C14 0.33 14 0.66 14 1 C13.16855469 1.12117187 12.33710938 1.24234375 11.48046875 1.3671875 C10.39378906 1.53476563 9.30710938 1.70234375 8.1875 1.875 C7.10855469 2.03742188 6.02960938 2.19984375 4.91796875 2.3671875 C1.82678207 2.85132338 1.82678207 2.85132338 -1 5 C-0.67 3.35 -0.34 1.7 0 0 Z " fill="#203065" transform="translate(145,151)"/>
</svg>
