<?xml version="1.0" encoding="UTF-8"?>
<svg version="1.1" xmlns="http://www.w3.org/2000/svg" width="496" height="503">
<path d="M0 0 C163.68 0 327.36 0 496 0 C496 165.99 496 331.98 496 503 C332.32 503 168.64 503 0 503 C0 337.01 0 171.02 0 0 Z " fill="#E1F4FC" transform="translate(0,0)"/>
<path d="M0 0 C151.14 0 302.28 0 458 0 C458 11.17322097 458 11.17322097 457.09375 16.25390625 C455.9509551 23.12777735 455.19203822 30.00535648 454.5 36.9375 C454.30772827 38.81199829 454.30772827 38.81199829 454.11157227 40.72436523 C453.50580457 46.69039753 452.93264584 52.65686746 452.43359375 58.6328125 C452.34851563 59.63965088 452.2634375 60.64648926 452.17578125 61.68383789 C452.0209127 63.5547959 451.87336618 65.42637951 451.734375 67.29858398 C451.66605469 68.12946533 451.59773438 68.96034668 451.52734375 69.81640625 C451.47312256 70.53256104 451.41890137 71.24871582 451.36303711 71.98657227 C450.93865181 74.34024109 450.27822891 75.97691151 449 78 C446.50567625 79.4657066 444.11150649 80.72492978 441.5 81.9375 C440.04681652 82.63529489 438.59369146 83.33321146 437.140625 84.03125 C436.43228516 84.36640625 435.72394531 84.7015625 434.99414062 85.046875 C431.63081577 86.6544191 428.32841885 88.38132245 425.015625 90.08984375 C417.30376171 93.57213861 408.30164 92.66868719 400.4609375 90.046875 C396.94791868 88.55244795 393.81200361 86.6005553 390.59375 84.55859375 C380.44325563 78.45912499 370.81995768 75.65511026 359 77 C349.61532409 79.43539688 341.14849838 84.37996019 332.84375 89.26953125 C325.90219126 92.93457066 318.67612081 93.13292145 311 92 C305.35575305 89.9241714 300.26845506 86.92752881 295.10644531 83.88330078 C283.83701776 77.33071508 274.26407143 74.62244673 261.234375 77.640625 C258.67470365 78.57295562 256.3961573 79.701182 254 81 C252.75834711 81.64816058 251.5161106 82.29520381 250.2734375 82.94140625 C247.67463752 84.30421469 245.09012446 85.68952353 242.515625 87.09765625 C240.77539062 88.03931641 240.77539062 88.03931641 239 89 C238.01773438 89.56460938 237.03546875 90.12921875 236.0234375 90.7109375 C229.20048566 93.61994798 220.61806932 93.22425369 213.640625 90.86328125 C210.64424756 89.38449912 207.82995283 87.77526202 205 86 C203.65615234 85.19369141 203.65615234 85.19369141 202.28515625 84.37109375 C200.66204357 83.39722614 199.04821547 82.40750823 197.44921875 81.39453125 C191.2945082 77.89017453 186.29690671 76.44095579 179.3125 76.5 C178.52157959 76.50572021 177.73065918 76.51144043 176.91577148 76.51733398 C167.30791485 76.8075927 160.3026034 80.41732747 152.375 85.625 C143.77457712 91.27248798 135.26877645 93.19117807 125 92 C118.76360906 90.44578972 113.3929021 87.13433928 107.875 83.9375 C96.83973455 77.56072536 87.52020659 74.49411885 74.52734375 77.9140625 C68.30503189 80.21312886 62.51953722 83.17382456 56.828125 86.5703125 C53.021969 88.49441899 49.06503405 89.73510024 45 91 C43.66408858 88.50135086 42.33130309 86.00110383 41 83.5 C40.45666016 82.48486328 40.45666016 82.48486328 39.90234375 81.44921875 C36.59359828 75.22429083 33.44513332 68.92166472 30.30175781 62.61230469 C28.2188878 58.43314733 26.12103681 54.26164357 24.02044678 50.09136963 C22.11969071 46.31672652 20.22309108 42.54000118 18.32666016 38.76318359 C17.35672752 36.83343199 16.38536652 34.90439767 15.41259766 32.97607422 C13.97689082 30.12922312 12.54658724 27.2797096 11.1171875 24.4296875 C10.6920285 23.58969208 10.26686951 22.74969666 9.8288269 21.88424683 C6.22774913 14.68340467 3.19046839 7.44442625 0 0 Z " fill="#201B18" transform="translate(13,247)"/>
<path d="M0 0 C7.70291991 0.8327481 14.87071976 4.12508229 22 7 C22.32034063 10.54099962 22.62958624 14.08289992 22.9375 17.625 C23.06801758 19.06552734 23.06801758 19.06552734 23.20117188 20.53515625 C24.13229714 31.36379827 24.50489565 42.10770428 25 53 C44.47 53 63.94 53 84 53 C90.89361702 70.23404255 90.89361702 70.23404255 93.1875 76.4375 C93.42146484 77.06591797 93.65542969 77.69433594 93.89648438 78.34179688 C94.36178503 79.59157136 94.82522681 80.84203981 95.28662109 82.09326172 C95.79356944 83.44824685 96.3135089 84.79840266 96.84228516 86.14501953 C99 91.68530316 99 91.68530316 99 95 C-4.95 95 -108.9 95 -216 95 C-213.60784314 81.84313725 -213.60784314 81.84313725 -212.4375 75.875 C-212.18871094 74.59367187 -211.93992187 73.31234375 -211.68359375 71.9921875 C-211 69 -211 69 -210 68 C-208.20038876 68.05265069 -206.40063322 68.11434788 -204.603302 68.21910095 C-186.76165231 69.8247669 -186.76165231 69.8247669 -170.00683594 65.28564453 C-165.4860833 61.03890603 -162.68378417 55.91568371 -160.09521484 50.32910156 C-158.69233193 47.34570811 -156.90650374 44.74630039 -155 42.0625 C-154.40445313 41.15113281 -153.80890625 40.23976562 -153.1953125 39.30078125 C-150.1584319 34.73465295 -147.01874724 30.24299323 -143.875 25.75 C-143.28847656 24.90961182 -142.70195312 24.06922363 -142.09765625 23.20336914 C-141.52660156 22.38860107 -140.95554687 21.57383301 -140.3671875 20.734375 C-139.61091064 19.65494629 -139.61091064 19.65494629 -138.83935547 18.55371094 C-138.23236816 17.71098633 -137.62538086 16.86826172 -137 16 C-136.47919106 14.98900993 -136.47919106 14.98900993 -135.94786072 13.95759583 C-134.49618188 11.47090373 -133.24966456 9.81314527 -131 8 C-126.32412826 6.82524437 -121.75630488 6.94957623 -116.95703125 7.04296875 C-115.58273995 7.0452006 -114.20844143 7.04461181 -112.83415222 7.04133606 C-109.9629186 7.04307435 -107.09369448 7.07205714 -104.22290039 7.12182617 C-100.54346732 7.18437623 -96.86675919 7.18907581 -93.18690968 7.1748457 C-90.35311686 7.1684368 -87.51994046 7.18717862 -84.68628502 7.21410561 C-83.32954223 7.22497889 -81.97272999 7.22926293 -80.61594582 7.22682762 C-78.72270568 7.22825409 -76.82959779 7.26599847 -74.93676758 7.30541992 C-73.8601033 7.3184465 -72.78343903 7.33147308 -71.67414856 7.34489441 C-69 8 -69 8 -67.2305603 10.32157898 C-65.66297878 13.73355585 -64.10864109 17.14400045 -62.64453125 20.6015625 C-62.18478157 21.67898209 -62.18478157 21.67898209 -61.71574402 22.77816772 C-61.07268958 24.28848501 -60.43155271 25.79962004 -59.79223633 27.31152344 C-58.81154239 29.62726124 -57.82116354 31.93869365 -56.83007812 34.25 C-56.20513881 35.72110352 -55.58076984 37.19244948 -54.95703125 38.6640625 C-54.51179863 39.70006088 -54.51179863 39.70006088 -54.05757141 40.75698853 C-52.83257943 43.6737099 -52 45.80214393 -52 49 C-37.81 48.67 -23.62 48.34 -9 48 C-7.48380315 39.28164478 -7.48380315 39.28164478 -5.97924805 30.5612793 C-4.83383173 24.06209178 -3.5101078 17.72461 -1.62890625 11.39648438 C-0.63866462 7.62311023 -0.31825881 3.88275752 0 0 Z " fill="#201B19" transform="translate(333,147)"/>
<path d="M0 0 C5.85607949 0.44352848 9.44514882 2.12617067 14.3125 5.3125 C25.18449275 12.04417412 34.9478199 16.29944111 48 14 C53.62360416 12.34706391 58.82127036 9.70634114 64 7 C74.85549959 1.44267527 84.95346301 -2.65021101 97.23828125 1.234375 C102.24642663 2.99424762 106.98563584 5.23350859 111.75 7.5625 C114.82792833 9.05329627 117.91058225 10.5331709 121 12 C121.85980469 12.4125 122.71960938 12.825 123.60546875 13.25 C132.8105593 16.1331605 142.91116936 14.46813228 151.41015625 10.4296875 C153.66570749 9.18454157 155.79826249 7.86958831 157.9375 6.4375 C167.34764742 0.28096463 178.59368294 -1.44181855 189.55078125 0.4375 C195.61990826 1.98624054 200.53350035 4.99883482 205.859375 8.21484375 C215.14683383 13.49390928 224.56853764 17.04931377 235.25 14.453125 C238.47572437 13.35344624 240.96545916 12.02363828 243.796875 10.0859375 C247.09025469 7.94122438 250.31987754 6.40199644 253.9375 4.875 C255.10152344 4.37742187 256.26554687 3.87984375 257.46484375 3.3671875 C267.29174374 -0.43327106 277.65965581 -1.99771496 287.75 1.87890625 C291.49383494 3.74432401 294.93784521 6.04509585 298.421875 8.3515625 C307.7433495 14.3116568 319.14662987 15.78313605 330 14 C335.05356767 12.31623334 339.59666267 9.5958447 344.20458984 6.96582031 C347.54338111 5.16975582 351.08584776 3.99626548 354.66796875 2.7890625 C357.04322423 2.02650984 357.04322423 2.02650984 359.4140625 0.91796875 C367.42840124 -1.92700044 377.36362867 -0.42745571 385 3 C386.6315321 4.18366054 388.26200738 5.36946601 389.86328125 6.59375 C400.04048543 13.29172715 411.95560278 16.28579801 424 14 C429.63560689 12.34005761 434.81734859 9.72663918 440 7 C441.85346182 6.06110727 443.70752265 5.12339492 445.5625 4.1875 C446.32949219 3.795625 447.09648437 3.40375 447.88671875 3 C452.25744109 0.93178388 456.12199612 0 461 0 C461 3.63 461 7.26 461 11 C460.23558594 11.1959375 459.47117187 11.391875 458.68359375 11.59375 C452.07089487 13.43989457 446.30496425 15.68960059 440.3125 19 C439.6743335 19.34933594 439.03616699 19.69867188 438.37866211 20.05859375 C437.75483643 20.40019531 437.13101074 20.74179687 436.48828125 21.09375 C426.02053162 26.81408798 416.93318872 28.82077732 404.93359375 26.375 C398.15388264 24.30880233 391.86896216 21.09575544 385.60571289 17.81835938 C376.17428476 12.89452062 366.73587818 11.13235314 356.15234375 13.6875 C350.96912452 15.65893045 346.32762008 18.47888793 341.71484375 21.53515625 C331.35390635 27.1255901 319.509901 27.72289151 308 26 C302.85606051 24.45527651 298.33460923 21.89629932 293.79394531 19.07617188 C287.18087968 15.10905248 281.67643018 12.84456279 273.875 12.75 C272.61429687 12.72421875 271.35359375 12.6984375 270.0546875 12.671875 C262.06774627 13.00241647 255.15596593 16.74535294 248.3125 20.5625 C238.40783146 26.0513002 229.71548315 28.94773174 218.23828125 26.3828125 C211.94757864 24.2577022 206.14849455 21.08868203 200.38916016 17.81835938 C191.93567635 13.08677879 182.57207457 11.03652621 173.00585938 13.51708984 C165.42396091 15.92115042 158.12704768 19.18452166 151.11328125 22.921875 C142.38732312 27.37356528 131.67616991 27.43514945 122.12890625 25.3828125 C119.64270694 24.4090152 117.35974729 23.25232203 115 22 C112.82447129 20.95431859 110.63982121 19.92940454 108.45361328 18.90625 C106.92721992 18.18930281 105.40457508 17.46430771 103.88623047 16.73046875 C103.18385254 16.39273437 102.48147461 16.055 101.7578125 15.70703125 C101.1302002 15.4025708 100.50258789 15.09811035 99.85595703 14.78442383 C92.18419722 11.54193971 82.39757321 11.82264929 74.625 14.5 C69.19230534 16.74078504 63.94226124 19.44298069 58.74462891 22.18164062 C49.25510113 27.12028682 38.83284998 29.05373497 28.375 25.875 C22.98639732 23.77834369 18.02107409 20.84112928 13 18 C10.6101386 16.69716364 8.21166912 15.41059747 5.8125 14.125 C4.70519531 13.52945312 3.59789062 12.93390625 2.45703125 12.3203125 C1.64621094 11.88460938 0.83539063 11.44890625 0 11 C0 7.37 0 3.74 0 0 Z " fill="#0B7FBB" transform="translate(11,336)"/>
<path d="M0 0 C1.26714844 0.54269531 2.53429688 1.08539063 3.83984375 1.64453125 C5.53898477 2.36737025 7.23820793 3.09001618 8.9375 3.8125 C9.76830078 4.16892578 10.59910156 4.52535156 11.45507812 4.89257812 C19.43822967 8.27842839 27.25817057 11.50214037 36 12 C37.00675781 12.06445312 38.01351562 12.12890625 39.05078125 12.1953125 C52.29695466 12.64535237 63.96240792 9.66040345 75.546875 3.26953125 C77.78535088 2.11108434 79.54012188 1.45211199 82 1 C82.73992187 0.86335938 83.47984375 0.72671875 84.2421875 0.5859375 C93.02960638 -0.11809903 99.97723883 3.07252928 107.81787109 6.62255859 C116.9048161 10.68025102 125.69249459 12.36329854 135.625 12.25 C136.31078125 12.25773437 136.9965625 12.26546875 137.703125 12.2734375 C146.70437814 12.23972494 154.23363462 9.74212152 162.3125 5.9375 C163.86974632 5.21453848 165.42829757 4.49437958 166.98828125 3.77734375 C168.00208862 3.30155884 168.00208862 3.30155884 169.03637695 2.81616211 C176.5195973 -0.29417056 185.60784947 -0.54271807 193.11328125 2.4921875 C197.53564012 4.48578242 201.78889015 6.77538531 206.03125 9.125 C218.34364884 14.59717726 233.05078243 14.64328315 245.6171875 10.3515625 C250.78335719 8.28748084 255.79123443 5.93570062 260.78515625 3.48828125 C267.85879928 0.21360568 276.57812372 -0.95589548 284.0546875 1.74121094 C288.23639298 3.63678592 292.2432406 5.8707486 296.26953125 8.07275391 C308.60645702 14.68331317 326.80670581 13.583137 340 10 C345.81977919 8.08933003 351.51523124 6.11433776 356.625 2.6875 C362.43977522 -0.21988761 368.32159065 0.43612435 374.5625 1.75 C380.12192703 3.77160983 385.59219732 5.96542156 391.02734375 8.30078125 C405.49292288 14.48467952 420.91283642 16.97859629 436 11 C440.20704216 8.95858545 444.33190886 6.77073919 448.4152832 4.49267578 C449.19476318 4.05938965 449.97424316 3.62610352 450.77734375 3.1796875 C451.81749634 2.58776611 451.81749634 2.58776611 452.87866211 1.98388672 C455 1 455 1 460 0 C460 3.63 460 7.26 460 11 C442.31337654 21.66775318 423.82424238 29.65339555 402.71875 24.75390625 C394.30552479 22.42092857 386.3754231 19.87281721 378.6875 15.6875 C372.19473867 12.32827722 367.28225632 11.79561541 360.25 13.7734375 C355.86677303 15.29539131 351.65642013 17.13873184 347.4375 19.0625 C331.91741509 26.12719815 313.18939013 27.78958323 297 22 C285.29989112 17.43957418 285.29989112 17.43957418 280.37890625 14.359375 C275.9029828 11.80170446 271.98727696 12.01368936 267 13 C262.89832165 14.57938712 258.97844636 16.51476613 255.07763672 18.53417969 C246.15203338 23.1437164 237.96039198 25.57317207 227.875 25.5 C226.51411255 25.49359497 226.51411255 25.49359497 225.12573242 25.48706055 C213.46913067 25.19715649 203.20108173 21.64255564 193.015625 16.015625 C186.61412797 12.79006448 178.95908557 13.26128754 172 14 C168.81880162 15.22078488 166.016361 16.74087934 163.04296875 18.3984375 C153.14483233 23.60798298 143.15841768 24.36191059 132.1875 24.4375 C131.13796143 24.44765137 130.08842285 24.45780273 129.00708008 24.46826172 C119.96436933 24.36677868 112.33551469 22.33437659 104.1875 18.4375 C95.41552074 14.2782602 87.32360074 11.67114987 77.65527344 14.74560547 C72.69187114 16.65025905 67.86109493 18.85903504 63.02929688 21.07275391 C48.04059937 27.92153556 31.28493483 26.06262921 16 21 C11.93231629 19.46756419 7.94559396 17.82334266 4 16 C4 15.34 4 14.68 4 14 C2.68 13.67 1.36 13.34 0 13 C0 8.71 0 4.42 0 0 Z " fill="#0D80BC" transform="translate(12,360)"/>
<path d="M0 0 C14.52 0 29.04 0 44 0 C44 4.62 44 9.24 44 14 C28.49 14 12.98 14 -3 14 C-3 8 -3 8 0 0 Z " fill="#DEF0F8" transform="translate(130,223)"/>
<path d="M0 0 C14.19 0 28.38 0 43 0 C47 12 47 12 47 14 C31.49 14 15.98 14 0 14 C0 9.38 0 4.76 0 0 Z " fill="#DDEFF7" transform="translate(374,223)"/>
<path d="M0 0 C13.2 0 26.4 0 40 0 C40 4.62 40 9.24 40 14 C26.8 14 13.6 14 0 14 C0 9.38 0 4.76 0 0 Z " fill="#DEF0F8" transform="translate(278,223)"/>
<path d="M0 0 C13.2 0 26.4 0 40 0 C40 4.62 40 9.24 40 14 C26.8 14 13.6 14 0 14 C0 9.38 0 4.76 0 0 Z " fill="#DEF0F8" transform="translate(230,223)"/>
<path d="M0 0 C13.2 0 26.4 0 40 0 C40 4.62 40 9.24 40 14 C34.46411467 14.02464775 28.928261 14.04283496 23.39233398 14.05493164 C21.5075627 14.05997244 19.62279535 14.06680498 17.73803711 14.07543945 C15.03498364 14.08751617 12.33198169 14.09323068 9.62890625 14.09765625 C8.78099014 14.10281754 7.93307404 14.10797882 7.0594635 14.11329651 C5.03928932 14.11349195 3.01922066 14.06206211 1 14 C0.67 13.67 0.34 13.34 0 13 C0 8.71 0 4.42 0 0 Z " fill="#DCEFF6" transform="translate(326,223)"/>
<path d="M0 0 C12.87 0 25.74 0 39 0 C39 4.62 39 9.24 39 14 C26.13 14 13.26 14 0 14 C0 9.38 0 4.76 0 0 Z " fill="#DEF1F9" transform="translate(183,223)"/>
<path d="M0 0 C2.31 0.33 4.62 0.66 7 1 C7.33 2.65 7.66 4.3 8 6 C22.52 6 37.04 6 52 6 C52 6.33 52 6.66 52 7 C37.48 7 22.96 7 8 7 C7.01 11.62 6.02 16.24 5 21 C20.51 21 36.02 21 52 21 C52 21.33 52 21.66 52 22 C51.43845718 22.01030746 50.87691437 22.02061493 50.2983551 22.03123474 C44.47506534 22.13907685 38.65193736 22.25369208 32.82885742 22.37231445 C30.65311047 22.41573507 28.47732786 22.45740471 26.30151367 22.49731445 C23.18136832 22.55484502 20.06140367 22.61858823 16.94140625 22.68359375 C15.96224747 22.70030624 14.98308868 22.71701874 13.97425842 22.73423767 C12.62297096 22.7641555 12.62297096 22.7641555 11.24438477 22.79467773 C10.04858543 22.81799416 10.04858543 22.81799416 8.82862854 22.84178162 C6.98148618 22.80400665 6.98148618 22.80400665 6 24 C11.28 24.33 16.56 24.66 22 25 C22 25.33 22 25.66 22 26 C13.09 26 4.18 26 -5 26 C-3.8340367 19.58720185 -2.66383773 13.19810512 -1.375 6.8125 C-1.11460938 5.51957031 -0.85421875 4.22664062 -0.5859375 2.89453125 C-0.39257812 1.93933594 -0.19921875 0.98414063 0 0 Z " fill="#2B2B2A" transform="translate(122,216)"/>
<path d="M0 0 C2.22652997 3.33979496 3.64941252 6.79338073 5.125 10.5 C5.40214844 11.17675781 5.67929687 11.85351562 5.96484375 12.55078125 C7.15187214 15.5154285 8 17.77680496 8 21 C-19.06 21 -46.12 21 -74 21 C-74 20.67 -74 20.34 -74 20 C-52.22 20 -30.44 20 -8 20 C-8 19.01 -8 18.02 -8 17 C-8.66 16.67 -9.32 16.34 -10 16 C-7.69 16 -5.38 16 -3 16 C-3.34224609 15.20335937 -3.34224609 15.20335937 -3.69140625 14.390625 C-4.12259766 13.33101562 -4.12259766 13.33101562 -4.5625 12.25 C-4.85253906 11.55390625 -5.14257812 10.8578125 -5.44140625 10.140625 C-6.08797225 7.66287557 -5.9375129 6.36683586 -5 4 C-3 2.875 -3 2.875 -1 2 C-0.67 1.34 -0.34 0.68 0 0 Z " fill="#282725" transform="translate(424,221)"/>
<path d="M0 0 C0.33 0 0.66 0 1 0 C1.495 4.455 1.495 4.455 2 9 C3.32 7.68 4.64 6.36 6 5 C6.66 5.33 7.32 5.66 8 6 C8 8.64 8 11.28 8 14 C8.99 14.33 9.98 14.66 11 15 C10.01 15 9.02 15 8 15 C7.67 15.66 7.34 16.32 7 17 C6.03505615 16.84152588 5.0701123 16.68305176 4.07592773 16.51977539 C-0.35062636 15.88994755 -4.74944423 15.77494342 -9.21484375 15.68359375 C-10.49845543 15.6524221 -10.49845543 15.6524221 -11.80799866 15.62062073 C-14.51775776 15.55570046 -17.2276064 15.49651022 -19.9375 15.4375 C-21.78451414 15.39425995 -23.63151952 15.35064399 -25.47851562 15.30664062 C-29.98558741 15.20007881 -34.49274844 15.09865263 -39 15 C-39 14.67 -39 14.34 -39 14 C-26.13 14 -13.26 14 0 14 C0 9.38 0 4.76 0 0 Z " fill="#252422" transform="translate(270,223)"/>
<path d="M0 0 C2.64 0 5.28 0 8 0 C8.12375 0.928125 8.12375 0.928125 8.25 1.875 C8.81258459 4.18437567 8.81258459 4.18437567 11.0625 5.25 C11.701875 5.4975 12.34125 5.745 13 6 C8.8306411 7.5883272 5.46492339 8.30442659 1 8 C0.34 7.67 -0.32 7.34 -1 7 C-0.67 4.69 -0.34 2.38 0 0 Z " fill="#047DBC" transform="translate(123,349)"/>
<path d="M0 0 C0.45890625 0.64453125 0.9178125 1.2890625 1.390625 1.953125 C5.27378028 4.99919291 8.94176379 4.67187504 13.75 4.75 C14.63816406 4.77964844 15.52632813 4.80929687 16.44140625 4.83984375 C18.62769449 4.91036918 20.81292768 4.96314637 23 5 C17.83419314 8.44387124 11.04860847 7.64923518 5 7 C-5.40226629 4.59773371 -5.40226629 4.59773371 -9 1 C-6.33333333 1 -3.66666667 1 -1 1 C-0.67 0.67 -0.34 0.34 0 0 Z " fill="#3A8BB8" transform="translate(414,356)"/>
<path d="M0 0 C1.22589844 0.15275391 1.22589844 0.15275391 2.4765625 0.30859375 C3.41628906 0.43427734 3.41628906 0.43427734 4.375 0.5625 C3.715 2.2125 3.055 3.8625 2.375 5.5625 C3.035 5.8925 3.695 6.2225 4.375 6.5625 C4.375 7.2225 4.375 7.8825 4.375 8.5625 C-1.5 7.6875 -1.5 7.6875 -2.625 6.5625 C-3.95094105 6.20087971 -5.28438457 5.86521961 -6.625 5.5625 C-5.635 4.2425 -4.645 2.9225 -3.625 1.5625 C-4.615 1.2325 -5.605 0.9025 -6.625 0.5625 C-4.10446405 -0.69776798 -2.7707902 -0.35624445 0 0 Z " fill="#017DBF" transform="translate(406.625,372.4375)"/>
<path d="M0 0 C11.88 0 23.76 0 36 0 C36 0.33 36 0.66 36 1 C34.02 1 32.04 1 30 1 C30 1.99 30 2.98 30 4 C27.36 3.67 24.72 3.34 22 3 C22 2.67 22 2.34 22 2 C14.74 1.67 7.48 1.34 0 1 C0 0.67 0 0.34 0 0 Z " fill="#232321" transform="translate(330,237)"/>
<path d="M0 0 C0.763125 0.20625 1.52625 0.4125 2.3125 0.625 C2.3125 1.615 2.3125 2.605 2.3125 3.625 C4.2925 3.625 6.2725 3.625 8.3125 3.625 C7.9825 5.275 7.6525 6.925 7.3125 8.625 C2.53640502 6.98321735 -1.48132904 4.35953298 -5.6875 1.625 C-2.6875 -0.375 -2.6875 -0.375 0 0 Z " fill="#1885BE" transform="translate(26.6875,350.375)"/>
<path d="M0 0 C2.31 0.33 4.62 0.66 7 1 C7 1.33 7 1.66 7 2 C5.35 2 3.7 2 2 2 C4.11785113 3.11785113 4.11785113 3.11785113 7 4 C6.34 4 5.68 4 5 4 C5.66 5.65 6.32 7.3 7 9 C4.69 9.66 2.38 10.32 0 11 C0 7.37 0 3.74 0 0 Z " fill="#238ABF" transform="translate(11,336)"/>
<path d="M0 0 C3 1 3 1 3 1 Z M-2 -4 C-1.67 -4 -1.34 -4 -1 -4 C-0.505 -1.03 -0.505 -1.03 0 2 C-3.18285696 3.59142848 -6.5870442 3.00008284 -10.0703125 2.87890625 C-10.86654022 2.85529526 -11.66276794 2.83168427 -12.48312378 2.80735779 C-15.03059529 2.73067789 -17.5777661 2.64667239 -20.125 2.5625 C-21.85024562 2.50928363 -23.57550598 2.4565432 -25.30078125 2.40429688 C-29.53404522 2.27505693 -33.76705382 2.13924581 -38 2 C-38 1.67 -38 1.34 -38 1 C-26.12 1 -14.24 1 -2 1 C-2 -0.65 -2 -2.3 -2 -4 Z " fill="#262625" transform="translate(320,236)"/>
<path d="M0 0 C8.29468686 -0.26998981 14.54400983 0.16733119 22 4 C19.01670696 4.94343455 16.12573555 5.74316509 13 6 C11 4.1875 11 4.1875 9 2 C6.01568642 1.33739891 3.05004585 1.13034384 0 1 C0 0.67 0 0.34 0 0 Z " fill="#1E86BA" transform="translate(372,361)"/>
<path d="M0 0 C1.1240625 0.00386719 2.248125 0.00773437 3.40625 0.01171875 C6.33088934 0.29605869 8.02707449 0.79116593 10.5 2.3125 C9.25283203 2.38597656 9.25283203 2.38597656 7.98046875 2.4609375 C6.89378906 2.53570312 5.80710937 2.61046875 4.6875 2.6875 C3.60855469 2.75710938 2.52960938 2.82671875 1.41796875 2.8984375 C-1.68626186 3.12445733 -1.68626186 3.12445733 -4.5 5.3125 C-4.83 4.6525 -5.16 3.9925 -5.5 3.3125 C-7.15 3.3125 -8.8 3.3125 -10.5 3.3125 C-7.07546776 0.13137814 -4.6000319 -0.06857846 0 0 Z " fill="#318EBF" transform="translate(379.5,335.6875)"/>
<path d="M0 0 C-0.33 1.32 -0.66 2.64 -1 4 C0.65 3.67 2.3 3.34 4 3 C4 3.99 4 4.98 4 6 C4.99 6.33 5.98 6.66 7 7 C1.72250715 6.46148032 -2.25645564 5.22656164 -7 3 C-3.375 0 -3.375 0 0 0 Z " fill="#1483BA" transform="translate(317,355)"/>
<path d="M0 0 C0.66 0.66 1.32 1.32 2 2 C1.73441476 5.85098598 -0.56043348 8.16695501 -3 11 C-3 10.34 -3 9.68 -3 9 C-3.99 8.67 -4.98 8.34 -6 8 C-4.02 5.36 -2.04 2.72 0 0 Z " fill="#292625" transform="translate(194,166)"/>
<path d="M0 0 C-0.33 0.99 -0.66 1.98 -1 3 C-0.01 3.33 0.98 3.66 2 4 C2 5.32 2 6.64 2 8 C0.35 8.33 -1.3 8.66 -3 9 C-2.67 7.68 -2.34 6.36 -2 5 C-3.32 4.67 -4.64 4.34 -6 4 C-2.25 0 -2.25 0 0 0 Z " fill="#007CC0" transform="translate(24,342)"/>
<path d="M0 0 C2.475 0.495 2.475 0.495 5 1 C5 1.66 5 2.32 5 3 C5.99 3 6.98 3 8 3 C8 3.99 8 4.98 8 6 C5.69 6 3.38 6 1 6 C1.33 5.01 1.66 4.02 2 3 C1.34 3 0.68 3 0 3 C0 2.01 0 1.02 0 0 Z " fill="#027BC0" transform="translate(257,373)"/>
<path d="M0 0 C0.66 0.33 1.32 0.66 2 1 C2.625 3.5625 2.625 3.5625 3 6 C0.83032311 6.95465783 -0.56328793 7.14401212 -2.82421875 6.3984375 C-4.5684743 5.64129615 -6.28627131 4.82390802 -8 4 C-7.401875 3.855625 -6.80375 3.71125 -6.1875 3.5625 C-4.43849596 3.1127561 -2.71322977 2.57107659 -1 2 C-0.67 1.34 -0.34 0.68 0 0 Z " fill="#1683BD" transform="translate(121,348)"/>
<path d="M0 0 C0 0.66 0 1.32 0 2 C-5.01986699 5.01667085 -8.71323804 5.38714622 -14.375 5.1875 C-15.11105469 5.17396484 -15.84710938 5.16042969 -16.60546875 5.14648438 C-18.40396743 5.11144869 -20.20208422 5.05765288 -22 5 C-22 4.67 -22 4.34 -22 4 C-21.05898438 3.96261719 -20.11796875 3.92523438 -19.1484375 3.88671875 C-17.90320313 3.82097656 -16.65796875 3.75523437 -15.375 3.6875 C-13.53035156 3.60048828 -13.53035156 3.60048828 -11.6484375 3.51171875 C-7.48664762 2.92799876 -4.00569974 0 0 0 Z " fill="#3D92BD" transform="translate(443,347)"/>
<path d="M0 0 C0 0.66 0 1.32 0 2 C-2.31 2.33 -4.62 2.66 -7 3 C-7.33 3.99 -7.66 4.98 -8 6 C-10.31 6.33 -12.62 6.66 -15 7 C-13.55037942 4.10075884 -11.54758474 3.68671126 -8.625 2.375 C-7.64789063 1.92898438 -6.67078125 1.48296875 -5.6640625 1.0234375 C-3 0 -3 0 0 0 Z " fill="#328DBD" transform="translate(272,339)"/>
<path d="M0 0 C1.18851562 0.00902344 2.37703125 0.01804687 3.6015625 0.02734375 C4.51679688 0.03894531 5.43203125 0.05054688 6.375 0.0625 C6.375 0.3925 6.375 0.7225 6.375 1.0625 C5.26125 1.165625 4.1475 1.26875 3 1.375 C1.80375 1.601875 0.6075 1.82875 -0.625 2.0625 C-1.615 3.5475 -1.615 3.5475 -2.625 5.0625 C-3.285 5.0625 -3.945 5.0625 -4.625 5.0625 C-4.955 4.4025 -5.285 3.7425 -5.625 3.0625 C-6.615 2.4025 -7.605 1.7425 -8.625 1.0625 C-5.74084117 -0.37957941 -3.20778472 -0.03144887 0 0 Z " fill="#3993C1" transform="translate(285.625,335.9375)"/>
<path d="M0 0 C0.33 0.66 0.66 1.32 1 2 C-1.4 8.4 -1.4 8.4 -4 11 C-4.99 10.67 -5.98 10.34 -7 10 C-3.535 5.05 -3.535 5.05 0 0 Z " fill="#2C2C2C" transform="translate(187,176)"/>
<path d="M0 0 C2.97 0.495 2.97 0.495 6 1 C5.6875 2.9375 5.6875 2.9375 5 5 C2 6 2 6 -0.1875 5.0625 C-0.785625 4.711875 -1.38375 4.36125 -2 4 C-1.34 2.68 -0.68 1.36 0 0 Z " fill="#017AB8" transform="translate(115,346)"/>
<path d="M0 0 C6.70518586 -0.19818283 12.65176798 -0.30844801 19 2 C19 2.33 19 2.66 19 3 C16.125 3.625 16.125 3.625 13 4 C12.34 3.34 11.68 2.68 11 2 C8.33757179 1.53709779 8.33757179 1.53709779 5.375 1.375 C3.87066406 1.26285156 3.87066406 1.26285156 2.3359375 1.1484375 C1.56507813 1.09945313 0.79421875 1.05046875 0 1 C0 0.67 0 0.34 0 0 Z " fill="#3790BF" transform="translate(186,336)"/>
<path d="M0 0 C0 1.98 0 3.96 0 6 C-0.99 6 -1.98 6 -3 6 C-4.68798827 7.43750191 -4.68798827 7.43750191 -6 9 C-5.63668534 5.73016809 -4.2451062 0 0 0 Z " fill="#1D1A19" transform="translate(278,223)"/>
<path d="M0 0 C1.98 0 3.96 0 6 0 C2.70675477 2.19549682 -0.48187121 4.17811188 -4 6 C-4.99 5.67 -5.98 5.34 -7 5 C-6.34 4.34 -5.68 3.68 -5 3 C-4.34 3.33 -3.68 3.66 -3 4 C-3 3.34 -3 2.68 -3 2 C-2.01 2 -1.02 2 0 2 C0 1.34 0 0.68 0 0 Z " fill="#2283B4" transform="translate(267,349)"/>
<path d="M0 0 C0.66 0.99 1.32 1.98 2 3 C1.34 3 0.68 3 0 3 C0 3.66 0 4.32 0 5 C-2.97 4.01 -5.94 3.02 -9 2 C-9 1.67 -9 1.34 -9 1 C-6.33333333 1 -3.66666667 1 -1 1 C-0.67 0.67 -0.34 0.34 0 0 Z " fill="#2186BE" transform="translate(414,356)"/>
<path d="M0 0 C0 0.66 0 1.32 0 2 C-1.63064764 3.05771739 -3.30280873 4.05273046 -5 5 C-5.99 5.66 -6.98 6.32 -8 7 C-9.32 6.34 -10.64 5.68 -12 5 C-10.37750059 4.16180842 -8.75191503 3.3295884 -7.125 2.5 C-6.22007813 2.0359375 -5.31515625 1.571875 -4.3828125 1.09375 C-2 0 -2 0 0 0 Z " fill="#2E89B9" transform="translate(84,339)"/>
<path d="M0 0 C2.97 0.495 2.97 0.495 6 1 C6 1.66 6 2.32 6 3 C5.360625 3.12375 4.72125 3.2475 4.0625 3.375 C3.381875 3.58125 2.70125 3.7875 2 4 C1.67 4.66 1.34 5.32 1 6 C0 5 0 5 -0.0625 2.4375 C-0.041875 1.633125 -0.02125 0.82875 0 0 Z " fill="#292929" transform="translate(333,147)"/>
<path d="M0 0 C0 0.99 0 1.98 0 3 C-0.99 3.33 -1.98 3.66 -3 4 C-3.33 4.99 -3.66 5.98 -4 7 C-5.65 7 -7.3 7 -9 7 C-8.07347299 5.82460004 -7.13336613 4.65989423 -6.1875 3.5 C-5.66542969 2.8503125 -5.14335937 2.200625 -4.60546875 1.53125 C-3 0 -3 0 0 0 Z " fill="#007AB9" transform="translate(135,374)"/>
<path d="M0 0 C3.55780196 0.60990891 6.6828589 1.5783681 10 3 C9.01 3.33 8.02 3.66 7 4 C7 4.66 7 5.32 7 6 C6.34 6 5.68 6 5 6 C4.67 4.68 4.34 3.36 4 2 C2.68 2 1.36 2 0 2 C0 1.34 0 0.68 0 0 Z " fill="#3890BF" transform="translate(127,347)"/>
<path d="M0 0 C3.3 0 6.6 0 10 0 C10.33 0.99 10.66 1.98 11 3 C8.83032311 3.95465783 7.43671207 4.14401212 5.17578125 3.3984375 C3.4315257 2.64129615 1.71372869 1.82390802 0 1 C0 0.67 0 0.34 0 0 Z " fill="#2185B8" transform="translate(12,347)"/>
<path d="M0 0 C1.98 0.495 1.98 0.495 4 1 C4 2.65 4 4.3 4 6 C1.525 5.01 1.525 5.01 -1 4 C-0.67 2.68 -0.34 1.36 0 0 Z " fill="#027CBD" transform="translate(87,338)"/>
<path d="M0 0 C1.4391134 0.28359887 2.87625518 0.57721399 4.3125 0.875 C5.11300781 1.03742188 5.91351563 1.19984375 6.73828125 1.3671875 C9 2 9 2 12 4 C8.7 4 5.4 4 2 4 C1.34 2.68 0.68 1.36 0 0 Z " fill="#2386B5" transform="translate(403,370)"/>
<path d="M0 0 C1.65 0.33 3.3 0.66 5 1 C2.60490662 3.89932357 0.68754757 4.50168276 -3 5 C-2.67 4.01 -2.34 3.02 -2 2 C-1.01 2.33 -0.02 2.66 1 3 C0.67 2.01 0.34 1.02 0 0 Z " fill="#31302F" transform="translate(349,330)"/>
<path d="M0 0 C2.31 0.66 4.62 1.32 7 2 C7 2.66 7 3.32 7 4 C5.35 4.33 3.7 4.66 2 5 C2.33 4.01 2.66 3.02 3 2 C2.01 2 1.02 2 0 2 C0 1.34 0 0.68 0 0 Z " fill="#1F83B6" transform="translate(119,367)"/>
<path d="M0 0 C0 0.99 0 1.98 0 3 C0.99 3.33 1.98 3.66 3 4 C0.6568787 3.74438677 -1.67843403 3.40729228 -4 3 C-4.33 2.34 -4.66 1.68 -5 1 C-3 0 -3 0 0 0 Z " fill="#308DBA" transform="translate(321,358)"/>
</svg>
